<?xml version="1.0" standalone="no"?>
<!DOCTYPE svg PUBLIC "-//W3C//DTD SVG 20010904//EN"
 "http://www.w3.org/TR/2001/REC-SVG-20010904/DTD/svg10.dtd">
<svg version="1.0" xmlns="http://www.w3.org/2000/svg"
 width="300.000000pt" height="300.000000pt" viewBox="0 0 300.000000 300.000000"
 preserveAspectRatio="xMidYMid meet">
<metadata>
Created by potrace 1.10, written by Peter Selinger 2001-2011
</metadata>
<g transform="translate(0.000000,300.000000) scale(0.100000,-0.100000)"
fill="#000000" stroke="none">
<path d="M1675 2007 c-82 -22 -152 -41 -154 -43 -5 -4 150 -174 158 -173 5 0
172 233 179 251 6 13 -27 7 -183 -35z"/>
<path d="M1425 1939 c-28 -8 -34 -20 -89 -166 -33 -87 -61 -164 -64 -170 -3
-10 12 -13 57 -13 48 0 61 -3 61 -15 0 -11 -12 -15 -45 -15 -54 0 -54 -1 -20
-125 13 -49 23 -90 22 -91 -1 -1 -45 -12 -99 -24 l-96 -22 -16 -42 c-9 -23
-16 -45 -16 -49 0 -4 81 -7 180 -7 l180 0 0 315 c0 173 3 315 8 315 4 0 32 -7
62 -15 30 -8 59 -15 63 -15 5 0 -22 34 -60 75 -70 76 -77 80 -128 64z"/>
<path d="M1510 1495 l0 -295 185 0 c102 0 185 3 185 7 0 16 -204 529 -214 539
-9 9 -129 44 -151 44 -3 0 -5 -133 -5 -295z"/>
<path d="M1212 1453 c-23 -59 -40 -109 -38 -111 6 -5 126 20 130 27 4 6 -40
180 -47 187 -2 2 -22 -44 -45 -103z"/>
<path d="M945 1080 l-150 -90 705 0 705 0 -150 90 -150 90 -405 0 -405 0 -150
-90z"/>
</g>
</svg>
