 <svg  version="1.0" xmlns="http://www.w3.org/2000/svg"  width="300.000000pt" height="300.000000pt" viewBox="0 0 300.000000 300.000000"  preserveAspectRatio="xMidYMid meet">  <g transform="translate(0.000000,300.000000) scale(0.100000,-0.100000)" fill="#3ee366" stroke="none"> <path d="M1833 2050 c-12 -5 -86 -26 -165 -46 -78 -21 -145 -39 -147 -40 -4 -4 150 -174 158 -174 3 0 26 30 50 66 24 36 66 94 92 130 60 80 61 84 12 64z m-90 -101 c-10 -17 -30 -45 -45 -62 l-26 -32 -36 35 c-20 19 -35 39 -33 44 3 10 108 44 140 45 17 1 17 0 0 -30z"/> <path d="M1425 1939 c-28 -8 -35 -21 -90 -166 -33 -86 -61 -163 -63 -170 -3 -10 14 -13 63 -13 58 0 66 -2 63 -17 -3 -15 -12 -17 -55 -15 l-51 4 29 -109 c16 -59 29 -108 29 -109 0 0 -44 -11 -99 -24 l-98 -23 -21 -48 -20 -49 184 0 184 0 0 315 c0 245 3 315 13 315 6 0 34 -7 61 -15 27 -8 53 -15 59 -15 5 0 -22 34 -60 75 -70 76 -77 80 -128 64z m62 -56 c4 -9 1 -19 -5 -21 -30 -10 -42 -61 -42 -172 l0 -112 -31 26 c-17 14 -39 26 -49 26 -10 0 -21 4 -24 9 -7 11 72 220 92 244 19 22 51 22 59 0z m-51 -630 c-7 -18 -250 -19 -244 0 3 6 33 19 69 28 86 22 94 26 109 55 12 21 11 35 -3 95 -18 75 -16 89 12 89 10 0 26 9 37 21 19 21 19 19 22 -127 1 -81 0 -154 -2 -161z"/> <path d="M1515 1495 l0 -295 186 0 185 0 -103 263 c-57 144 -107 269 -111 277 -7 11 -120 48 -152 50 -3 0 -5 -133 -5 -295z m113 218 c23 -20 196 -449 186 -464 -8 -14 -238 -11 -252 3 -13 13 -18 459 -5 471 12 13 51 7 71 -10z"/> <path d="M1212 1452 c-23 -60 -42 -111 -42 -114 0 -2 30 3 68 13 37 9 67 21 67 25 0 15 -37 158 -44 172 -4 7 -25 -35 -49 -96z"/> <path d="M960 1089 c-74 -44 -142 -84 -150 -89 -9 -6 259 -9 690 -10 l705 0 -152 90 -152 90 -403 0 -403 -1 -135 -80z m1008 -4 c34 -22 62 -43 62 -47 0 -5 -239 -8 -531 -8 -407 0 -530 3 -527 12 3 7 37 29 77 50 l74 39 391 -3 391 -3 63 -40z"/> </g> </svg> 